<svg version="1.2" xmlns="http://www.w3.org/2000/svg" viewBox="0 0 500 150" width="500" height="150">
	<title>golem1</title>
	<style>
		.s0 { fill: currentColor } 
	</style>
	<path id="Path 0" fill-rule="evenodd" class="s0" d="m76.2 2c17.3 0 17.6 0 21.1 1.2 1.9 0.7 4.8 1.8 6.4 2.6 1.5 0.7 4 2.2 5.5 3.3 1.5 1.1 3.8 3.4 5.2 5.1 1.4 1.7 3.1 3.8 3.7 4.7 0.6 0.9 1.8 3.3 2.5 5.5 1.1 2.9 1.5 5.1 1.9 14.3l-3.6 2.9c-1.9 1.6-4.4 3.4-5.4 4-1.1 0.7-2.6 1.2-6.5 1.2l-0.4-4.3c-0.2-2.4-0.8-4.9-1.1-5.6-0.4-0.8-1.4-2-2.2-2.7-0.8-0.8-2.3-1.8-3.3-2.3-1-0.5-2.1-0.7-2.5-0.5-0.3 0.1-1.2 1.4-3.2 5.5h-3.1c-1.8 0-4.6-0.4-6.4-0.9-2.5-0.6-4.4-0.7-8-0.5-2.7 0.2-5.9 0.9-7.5 1.5-1.6 0.6-4.1 2.1-5.5 3.2-1.4 1.2-4.4 4.6-6.5 7.5-2.2 2.9-4.3 5.3-4.7 5.3-0.4 0-1.7-0.9-2.9-2.1-1.1-1.1-2.3-2.1-2.6-2.1-0.2 0-1.4 0.9-2.4 2.1-1.1 1.2-2.1 2.6-2.2 3.3-0.1 0.6-0.4 2.2-0.5 3.5-0.2 1.3-0.1 3.2 0.2 4.2 0.3 1 1.3 2.6 4.2 5.4v11.5l-1.9 1.8c-1 1-2.1 2.4-2.4 3-0.2 0.7-0.2 2.6 0.1 4.8 0.3 2.1 1.2 5 3.6 9.9l1.5-1c0.8-0.6 1.6-1.1 1.9-1.1 0.3 0.1 1.8 1.4 3.4 3q2.9 3 6.8 5c3 1.4 5 2 8.6 2.4 3.2 0.4 6.5 0.5 10.4 0.1 3.5-0.3 7.3-1 9.9-1.9 2.3-0.7 4.7-1.7 5.5-2 1-0.6 1.6-1.7 2.8-5.7 0.9-2.7 1.4-5.2 1.1-5.4-0.2-0.2-4.5-0.5-18.8-0.8l-4.9 2.4c-2.8 1.3-5.5 2.5-6 2.6-0.8 0.2-1.9-0.7-4.8-4.4-2.1-2.5-3.8-4.9-3.8-5.3 0-0.3 5.1-6 22.9-24.3h38.5l3.1 10.1 0.1 46.4-2.4 7.8c-1.3 4.3-2.3 7.9-2.3 7.9 0 0.1-2.5 1.4-5.6 2.9-3.1 1.6-7.5 3.5-9.8 4.2-2.3 0.8-5.9 1.7-7.9 2.2-2.3 0.4-6.5 0.7-10.4 0.7-5.3 0-7.9-0.2-12.2-1.2-3-0.8-5.8-1.3-6.2-1.4-0.5 0-1.5 1.5-2.5 3.7-1.1 2.5-2 3.6-2.6 3.6-0.5 0-4.1-0.9-7.9-2.1-3.9-1.2-8.9-2.8-11.2-3.7-2.6-1-5.3-2.6-7.1-4.1-1.5-1.3-5-4.8-7.8-7.8-2.7-3-6-6.7-7.4-8.3-1.3-1.6-2.4-3.2-2.4-3.6 0-0.5 1.1-2 5.1-6l-2.6-3.2c-1.4-1.7-3.4-4.3-4.4-5.7-0.9-1.4-2.4-4.1-3.3-6-0.9-1.8-2-5.1-2.4-7.1-0.4-2.1-0.8-4.3-0.8-5 0-0.8-1.6-2.8-9.9-11.1v-11.4l5.2-5.2c4.6-4.6 5.3-5.5 5.8-7.8 0.3-1.5 1.1-4.4 1.8-6.5 0.7-2.2 1.9-4.9 2.6-6 0.8-1.2 2.5-3.5 6.5-8.1l-1.2-1.6c-1.1-1.5-1.1-1.6-0.3-3 0.5-0.8 2.7-3 4.9-5 2.3-1.9 6.8-5.3 10.1-7.5 3.3-2.2 8.5-5.2 11.5-6.7 3-1.5 6.9-3.1 8.6-3.5 2.3-0.6 7.4-0.8 20.7-0.8zm329 32.8l22.6 0.2 9.6 16.2c5.3 8.9 10.9 18.2 12.5 20.8 1.7 2.6 3.3 4.7 3.7 4.7 0.3 0 4.7-7.8 9.7-17.4 5-9.6 9.9-19.1 12.7-24.5h23.5v2.5c-0.1 2-0.4 2.8-3.7 6.9v55.2l2.1 2.4c1.6 1.8 2.1 3 2.1 5.9h-23.4v-2c0-1.3 0.4-2.5 2.8-5.6l-0.5-29.7-19.8 30.6-14.5-0.3-18.3-29-0.5 28.4 1.7 2c1.2 1.4 1.7 2.5 1.7 5.6h-21.9v-3c0-1.6 0.3-3.9 0.7-5.1 0.6-1.6 0.8-8.2 1.4-53.6l-2.1-2.2c-2-2.2-2.1-2.4-2.1-5.6zm-82.3 0h62l3.9 7.3c2.1 4 3.9 7.4 3.9 7.6 0 0.3-1 1.2-2.3 2.1-1.3 1-2.6 1.7-2.8 1.7-0.2 0-2.2-1.2-8.7-5.1l-37.2-0.1v16.2l39.8-0.1 3.4 3.4-3.9 6.3c-2.2 3.4-4.2 6.5-4.4 6.8-0.3 0.3-1.5-0.4-6-4.4l-28.9-0.1v19.3h35.4l12.2-5.2 1.7 1.7c1 0.9 1.7 1.9 1.7 2.2 0 0.3-1.8 3.4-8.1 13.3h-62.2v-1.7c0-1 0.6-2.5 2.6-5.3l0.7-57.3-1.4-1.7c-1.1-1.4-1.4-2.3-1.4-4.3zm-137.5 1.8c12.6 0.1 14.1 0.2 17.5 1.3 2 0.6 5 1.8 6.7 2.6 1.7 0.7 4.2 2.1 5.5 3 1.3 0.9 3.6 3.4 5.2 5.5 1.5 2 3.8 5.5 7 11.6l0.4 21.3-2.5 4.9c-1.6 3-3.6 6-5.2 7.6-1.4 1.4-3.4 3.2-4.4 4-1 0.8-5.2 3.2-16.9 9.3h-15.8c-14.8 0-15.9-0.1-18.5-1.1-1.5-0.6-5.9-2.6-9.7-4.4-3.9-1.9-7.6-3.9-8.3-4.6-0.6-0.6-2.2-2.7-3.5-4.7-1.2-2.1-3.2-5.9-6.5-13.6v-9.1c0-7.2 0.2-9.6 0.8-11.5 0.5-1.3 1.4-3.1 2-4.1 0.6-1 2.2-3.1 3.5-4.7 1.3-1.5 4-4.2 6-5.8 2-1.7 4.6-3.6 5.7-4.1 1.2-0.6 5.5-1.6 9.7-2.3 7-1.2 8.5-1.3 21.3-1.1zm-19.1 13.4c-1 0.4-3.3 2-5.1 3.7-1.7 1.7-3.4 2.9-3.7 2.8-0.2-0.2-1.1 0.3-1.9 1.1-0.7 0.8-2.3 3.2-3.5 5.3-2 3.7-2.1 4.1-2.1 8.3 0 3.8 0.2 4.9 1.5 7.6 0.8 1.7 2.4 4.5 3.6 6.2 1.1 1.8 2.9 3.9 3.8 4.8 1 0.9 3.4 2.3 5.4 3.1 2 0.7 4.8 1.7 6.3 2.2 2 0.6 5 0.8 13 0.8 8.3 0.1 11-0.1 13.3-0.8 1.5-0.5 4.5-2 6.5-3.3 2-1.4 5-3.8 6.7-5.5 2.4-2.3 3.4-3.7 4.1-5.8 0.6-1.9 0.9-4.5 0.9-8.6 0-3.7-0.2-5.8-0.5-5.6-0.3 0.1-1.3-1.3-2.3-3.3-1.1-2-3-4.6-4.6-6.2-1.5-1.4-4.5-3.5-6.5-4.5-2.1-1.1-3.7-2.1-3.5-2.3 0.1-0.2-0.5-0.8-1.4-1.3-1.3-0.8-3.1-0.9-14.5-0.9-11 0-13 0.1-13.3 0.8-0.1 0.4-1.1 1-2.2 1.4zm103-13.7v1.6c0 1.1-0.7 2.4-4.7 7v50.8l35.1 0.1 1.6-3.3 6.6 0.1c5 0 6.7 0.2 6.7 0.6-0.1 0.4-2.1 3.5-9.1 13l-58.6-0.1v-1.7c-0.1-1.1 0.5-2.3 3.6-6.1v-54.1l-2.6-2.9c-1.4-1.6-2.6-3.3-2.6-3.9 0-1 0.4-1.1 24-1.1z"/>
</svg>